# xmcd
#
# Track frame offsets:
#	150
#	12274
#	26932
#	44619
#	59743
#	76234
#	91532
#	112841
#	126655
#	136638
#	147254
#	161939
#	171890
#	183664
#	193203
#	205004
#	215695
#
# Disc length: 3049 seconds
#
# Revision: 1
# Processed by: cddbd v1.4PL0 Copyright (c) Steve Scherf et al.
# Submitted via: audiograbber 1.80
#
DISCID=fc0be711
DTITLE=John Denver - In Memory Of (Disk 1)
DYEAR=1900
DGENRE=
TTITLE0=Take me home, country roads
TTITLE1=Annie's Song
TTITLE2=Rocky mountain high
TTITLE3=Alaska and me
TTITLE4=Sunshine on my shoulders
TTITLE5=Eagles and horses
TTITLE6=Windsong
TTITLE7=For you
TTITLE8=Eagle and the hawk
TTITLE9=The flower that shattered the stone
TTITLE10=Never a doubt
TTITLE11=I want to live
TTITLE12=In a far away land
TTITLE13=The gift you are
TTITLE14=Two different directions
TTITLE15=Thanks to you
TTITLE16=Potter's Wheel (live)
EXTD=
EXTT0=
EXTT1=
EXTT2=
EXTT3=
EXTT4=
EXTT5=
EXTT6=
EXTT7=
EXTT8=
EXTT9=
EXTT10=
EXTT11=
EXTT12=
EXTT13=
EXTT14=
EXTT15=
EXTT16=
PLAYORDER=
